HIERARCHY
ROOT hip
{
	OFFSET 0.00000 0.00000 0.00000
	CHANNELS 6 Xposition Yposition Zposition Zrotation Yrotation Xrotation
	JOINT lhipjoint
	{
		OFFSET 0 0 0
		CHANNELS 3 Zrotation Yrotation Xrotation
		JOINT lfemur
		{
			OFFSET 1.57314 -1.85774 0.63783
			CHANNELS 3 Zrotation Yrotation Xrotation
			JOINT ltibia
			{
				OFFSET 2.57982 -7.08799 0.00000
				CHANNELS 3 Zrotation Yrotation Xrotation
				JOINT lfoot
				{
					OFFSET 2.63993 -7.25315 0.00000
					CHANNELS 3 Zrotation Yrotation Xrotation
					JOINT ltoes
					{
						OFFSET 0.16864 -0.46332 2.12791
						CHANNELS 3 Zrotation Yrotation Xrotation
						End Site
						{
							OFFSET 0.00000 -0.00000 1.09718
						}
					}
				}
			}
		}
	}
	JOINT rhipjoint
	{
		OFFSET 0 0 0
		CHANNELS 3 Zrotation Yrotation Xrotation
		JOINT rfemur
		{
			OFFSET -1.56006 -1.85774 0.63784
			CHANNELS 3 Zrotation Yrotation Xrotation
			JOINT rtibia
			{
				OFFSET -2.54246 -6.98536 0.00000
				CHANNELS 3 Zrotation Yrotation Xrotation
				JOINT rfoot
				{
					OFFSET -2.65791 -7.30256 0.00000
					CHANNELS 3 Zrotation Yrotation Xrotation
					JOINT rtoes
					{
						OFFSET -0.18435 -0.50650 2.16316
						CHANNELS 3 Zrotation Yrotation Xrotation
						End Site
						{
							OFFSET -0.00000 -0.00000 1.11780
						}
					}
				}
			}
		}
	}
	JOINT lowerback
	{
		OFFSET 0 0 0
		CHANNELS 3 Zrotation Yrotation Xrotation
		JOINT upperback
		{
			OFFSET -0.00136 1.92812 -0.29638
			CHANNELS 3 Zrotation Yrotation Xrotation
			JOINT thorax
			{
				OFFSET -0.00528 1.96223 -0.02928
				CHANNELS 3 Zrotation Yrotation Xrotation
				JOINT lowerneck
				{
					OFFSET 0 0 0
					CHANNELS 3 Zrotation Yrotation Xrotation
					JOINT upperneck
					{
						OFFSET -0.01015 1.75586 0.07797
						CHANNELS 3 Zrotation Yrotation Xrotation
						JOINT head
						{
							OFFSET 0.05540 1.72452 0.04558
							CHANNELS 3 Zrotation Yrotation Xrotation
							End Site
							{
								OFFSET 0.02170 1.79958 0.00864
							}
						}
					}
				}
				JOINT lclavicle
				{
					OFFSET 0 0 0
					CHANNELS 3 Zrotation Yrotation Xrotation
					JOINT lhumerus
					{
						OFFSET 3.16292 1.29277 -0.65728
						CHANNELS 3 Zrotation Yrotation Xrotation
						JOINT lradius
						{
							OFFSET 5.52302 -0.00000 -0.00000
							CHANNELS 3 Zrotation Yrotation Xrotation
							JOINT lwrist
							{
								OFFSET 3.58675 -0.00000 -0.00000
								CHANNELS 3 Zrotation Yrotation Xrotation
								JOINT lhand
								{
									OFFSET 0 0 0
									CHANNELS 3 Zrotation Yrotation Xrotation
									JOINT lfingers
									{
										OFFSET 0.53641 -0.00000 -0.00000
										CHANNELS 3 Zrotation Yrotation Xrotation
										End Site
										{
											OFFSET 0.43247 -0.00000 -0.00000
										}
									}
								}
								JOINT lthumb
								{
									OFFSET 0 0 0
									CHANNELS 3 Zrotation Yrotation Xrotation
									End Site
									{
										OFFSET 0.43907 -0.00000 0.43907
									}
								}
							}
						}
					}
				}
				JOINT rclavicle
				{
					OFFSET 0 0 0
					CHANNELS 3 Zrotation Yrotation Xrotation
					JOINT rhumerus
					{
						OFFSET -3.08296 1.43376 -0.52927
						CHANNELS 3 Zrotation Yrotation Xrotation
						JOINT rradius
						{
							OFFSET -5.84780 -0.00000 0.00000
							CHANNELS 3 Zrotation Yrotation Xrotation
							JOINT rwrist
							{
								OFFSET -3.62717 -0.00000 -0.00000
								CHANNELS 3 Zrotation Yrotation Xrotation
								JOINT rhand
								{
									OFFSET 0 0 0
									CHANNELS 3 Zrotation Yrotation Xrotation
									JOINT rfingers
									{
										OFFSET -0.65052 -0.00000 -0.00000
										CHANNELS 3 Zrotation Yrotation Xrotation
										End Site
										{
											OFFSET -0.52446 -0.00000 -0.00000
										}
									}
								}
								JOINT rthumb
								{
									OFFSET 0 0 0
									CHANNELS 3 Zrotation Yrotation Xrotation
									End Site
									{
										OFFSET -0.53247 -0.00000 0.53247
									}
								}
							}
						}
					}
				}
			}
		}
	}
}
MOTION
Frames: 16
Frame Time: 0.033333
4.2169 -6.7259 -8.9987 5.8797 28.2222 -14.9919 2.3485 13.3596 4.3815 0.5202 -3.7099 16.0599 -9.7369 18.7222 11.9377 5.2560 -8.9516 16.2807 -14.4686 -9.9979 -6.7737 -21.2269 -27.4886 15.3400 17.6612 23.6504 -12.6393 16.3500 -26.4873 3.7779 -20.6379 8.9507 -34.2645 10.2891 -12.5399 -2.6280 5.3972 -3.7685 9.8176 -0.8304 -4.8081 -1.6003 7.1630 6.9473 -4.7792 -6.6422 -3.8284 -11.7013 3.5534 4.4324 -3.4254 8.5173 2.9044 -9.8227 -1.8731 -3.5476 -6.7901 -4.8326 0.3154 1.8348 5.6264 -22.6182 -5.8796 15.8691 -8.6255 -10.5702 10.7445 2.4238 0.5212 -2.7434 -3.4859 0.0515 -2.3339 -0.0162 1.8093 0.0000 2.4848 8.1625 1.1626 -0.8343 -4.1487 -1.9057 0.0000 0.0000 0.0000 0.0000 0.0000 0.0000 0.0000 0.0000 0.0000 0.0000 0.0000 0.0000 0.0000 0.0000
-1.3733 12.6546 -22.0161 4.7994 12.1729 -6.7491 1.4621 -42.0937 -15.1852 1.3569 4.2168 -29.3499 12.5360 -9.0357 -16.7687 -5.7287 10.7991 -23.6432 26.6937 22.8805 10.1513 33.4271 44.7742 -29.2719 -39.4839 -39.7598 24.7700 -31.2671 47.9574 -10.3337 40.8765 -19.2499 63.5462 -19.2294 23.6594 0.9967 -4.1146 8.5219 -16.9452 2.8531 10.8386 6.4240 -11.4174 -7.4760 3.6584 11.4143 5.8772 18.8850 -4.0607 -1.0686 -1.4771 -4.6206 0.8081 6.0073 2.8656 1.8530 7.1728 4.7152 -0.0904 -1.4208 -4.4745 18.5486 1.9047 -9.8848 9.4767 11.3308 -7.1503 -2.2802 -1.3323 3.9917 3.2514 -0.0868 1.8780 -0.0938 -1.5393 -0.0000 -1.5309 0.2376 -4.2220 -2.7785 -1.1840 -0.2317 0.0000 0.0000 0.0000 0.0000 0.0000 0.0000 0.0000 0.0000 0.0000 0.0000 0.0000 0.0000 0.0000 0.0000
-5.2794 -7.7738 11.7653 -3.5474 -8.7606 1.9606 -0.6537 36.3235 13.4167 0.4849 -4.7112 28.0361 -10.8442 10.5605 15.0751 5.4628 -9.8715 21.6009 -23.8268 -22.5655 -8.8156 -31.4499 -40.3426 26.5267 34.6386 35.1491 -22.1246 28.3029 -43.3440 9.1906 -36.7501 15.0112 -58.4536 18.9312 -20.4021 -2.1299 4.5751 -5.9747 13.8551 -0.8292 -6.5728 -4.7832 12.2549 8.5540 -7.9639 -7.8211 -6.6045 -17.9499 8.8493 6.6936 -1.4061 10.4067 2.9395 -11.2897 -6.2417 -5.5943 -9.6462 -6.1391 0.5792 3.0339 8.1139 -32.8053 -7.4897 20.4498 -14.9973 -19.3438 11.5264 4.2132 0.3670 -4.8440 -5.0822 0.0154 -3.5333 0.0834 2.5542 0.0000 3.7015 -7.2587 0.5479 -2.0321 -3.8247 -2.4837 0.0000 0.0000 0.0000 0.0000 0.0000 0.0000 0.0000 0.0000 0.0000 0.0000 0.0000 0.0000 0.0000 0.0000
-10.3300 -0.3535 3.4751 -0.1555 -1.4874 -0.1879 0.9566 -4.2863 -0.8141 0.8570 -0.2492 -5.7632 3.0078 -5.4758 -3.4653 -0.5797 1.5965 -4.9415 4.2403 2.2306 1.3540 3.7904 8.7760 -4.3489 -6.3103 -8.5127 3.7902 -4.2774 9.6892 -1.0594 6.3704 -4.3664 9.9749 -3.8577 1.7602 -0.7731 -0.4819 4.7706 -3.8656 1.0149 3.9279 1.6327 -0.4728 -0.3002 -2.7659 2.4828 0.1342 0.8628 2.8036 9.2679 -1.4398 3.8275 1.6782 -5.6617 -2.4359 -3.2985 -2.4520 -0.9617 0.2446 1.5992 3.9703 -13.3273 -2.4136 8.0809 -6.6585 -8.2882 3.9121 2.2764 0.0919 -2.1381 -1.6141 -0.0412 -1.5231 0.0176 1.0075 -0.0000 4.0319 -2.1373 -0.6640 2.2766 0.0145 -0.0404 0.0000 0.0000 0.0000 0.0000 0.0000 0.0000 0.0000 0.0000 0.0000 0.0000 0.0000 0.0000 0.0000 0.0000
-2.4250 2.0180 -13.0554 4.6315 17.1548 -13.7193 1.4157 -6.6239 -0.9578 2.7305 1.3135 2.5511 -3.3048 7.4610 1.1001 2.2094 -2.5765 1.8905 1.6902 -0.3495 1.2568 -2.0518 -6.8254 3.7546 -0.3443 2.5374 0.2721 1.0372 -3.1607 1.6807 -0.2194 -0.1038 -1.9332 -1.0169 0.8496 2.6807 -0.3244 -3.1395 1.7578 -1.6004 0.5837 2.4866 3.6424 3.6535 -5.1692 0.9938 -1.7286 -2.9507 5.4271 6.8718 -1.4300 6.8482 4.4322 -7.1825 -1.8620 -4.1115 -3.3723 -2.4385 0.4705 1.6659 4.5532 -17.4286 -4.6880 11.4300 -7.8203 -10.1381 5.9415 2.6362 0.3170 -2.6153 -2.1646 -0.0201 -1.6686 0.0667 1.3033 -0.0000 -7.0639 4.9309 3.3845 1.9095 0.9704 -0.3672 0.0000 0.0000 0.0000 0.0000 0.0000 0.0000 0.0000 0.0000 0.0000 0.0000 0.0000 0.0000 0.0000 0.0000
4.3966 3.2807 -4.4741 -1.6022 -6.3904 4.8979 0.6849 -15.1508 -4.3945 -2.1145 3.0893 -13.1942 4.4450 -12.3911 -8.5926 -2.6135 5.2773 -11.7852 12.0253 8.6441 6.1930 15.6914 18.6230 -13.2971 -15.7345 -19.1068 10.7828 -13.8161 18.5214 -3.8636 15.7870 -8.4970 29.6307 -10.1275 10.5945 2.6554 -4.5152 1.3718 -7.2800 0.3504 4.6551 2.7546 -5.9559 -4.0966 4.3432 -0.5631 3.5706 7.7293 -3.0846 1.1626 -0.0775 -4.3968 -2.1007 4.5785 0.7839 1.6739 3.2996 2.5193 -0.3088 -1.0017 -2.6028 11.3885 3.1080 -8.9431 3.3286 4.5903 -5.4175 -2.2104 0.0370 1.4698 1.3742 0.0016 1.5224 0.0432 -0.8996 0.0000 3.7665 1.1093 1.5506 1.9630 3.0822 -1.1092 0.0000 0.0000 0.0000 0.0000 0.0000 0.0000 0.0000 0.0000 0.0000 0.0000 0.0000 0.0000 0.0000 0.0000
3.6965 1.3528 -10.1636 6.1844 15.0500 -12.4940 5.1125 -5.1550 0.7123 2.5023 2.4978 0.2879 1.5242 3.8692 0.1210 1.0760 -1.4670 2.7224 2.4573 0.9284 1.5418 0.3666 -4.0896 -0.8276 -1.8102 -0.2825 2.3910 -1.8567 0.4179 1.9963 0.9973 0.3863 2.2670 2.8188 4.3012 -1.7303 2.0078 0.7222 -3.0368 -0.4744 0.8585 -1.1417 -0.1116 0.1173 0.1926 0.8241 0.6851 1.3577 -1.9332 -3.2378 0.6014 -1.0853 -0.3925 2.3995 1.2032 1.2937 1.3345 0.4562 -0.0629 -0.5339 -1.2646 5.4781 2.5472 -3.2983 2.9106 2.8533 -2.6883 -1.3463 -1.3774 1.8763 0.9661 -0.0475 0.6494 0.0165 -0.5479 -0.0000 5.0500 4.2534 2.4035 0.8661 -1.0607 0.5566 0.0000 0.0000 0.0000 0.0000 0.0000 0.0000 0.0000 0.0000 0.0000 0.0000 0.0000 0.0000 0.0000 0.0000
-3.6326 -5.7425 19.7510 -3.6298 -11.4576 7.9924 -2.3439 24.5625 5.6669 -1.1173 -3.8039 15.1395 -2.3436 9.5510 10.4943 2.9660 -4.3364 11.1255 -15.8073 -8.9929 -7.8100 -17.1724 -23.1830 17.3543 20.6437 22.9451 -13.0090 17.5880 -21.2465 6.6032 -20.0331 12.4601 -37.1243 13.0212 -10.7691 -2.0129 4.6380 -2.7286 7.7388 -0.1434 -6.1191 -4.6385 3.1835 4.8215 0.0363 -6.6782 -2.4528 -8.5808 -1.2785 -7.3028 -1.0142 0.2150 0.4091 -1.1407 2.8714 1.3991 -1.2495 -1.4140 -0.3352 -0.4234 -0.5810 0.1312 -1.2613 -0.7408 -0.4864 -0.0324 0.8450 0.3361 2.0209 -1.7884 -0.3884 0.1125 -0.3125 -0.0663 0.2786 0.0000 -5.6989 -0.6429 -2.3135 -1.0291 -3.7082 0.1598 0.0000 0.0000 0.0000 0.0000 0.0000 0.0000 0.0000 0.0000 0.0000 0.0000 0.0000 0.0000 0.0000 0.0000
16.4532 -6.4786 -12.9106 -3.8963 -4.9189 -1.5637 0.8346 26.8466 12.2556 1.7131 -2.6631 23.0242 -10.0452 13.1672 15.6363 6.2215 -9.6607 19.7304 -22.0519 -19.0418 -7.5404 -27.5598 -38.6694 25.2750 31.4909 34.2226 -19.1308 23.9195 -39.3145 7.4716 -32.4298 12.4109 -53.9619 12.1072 -21.3459 0.8163 2.4870 -8.8724 17.3354 -2.5697 -10.2536 -3.0602 10.3904 6.8171 -4.5111 -7.9549 -5.5191 -15.6800 6.7225 1.5320 1.4584 5.5507 -0.7167 -5.1029 -5.8482 -2.6354 -6.7261 -3.8354 0.3500 1.6947 4.9654 -18.9034 -5.1570 9.4734 -11.5047 -13.7332 5.4597 2.3306 0.2423 -3.4122 -3.7165 0.0231 -2.0010 0.1302 1.5025 0.0000 11.4861 12.7661 11.2606 -1.1992 -2.7644 -1.3087 0.0000 0.0000 0.0000 0.0000 0.0000 0.0000 0.0000 0.0000 0.0000 0.0000 0.0000 0.0000 0.0000 0.0000
-0.5046 -2.6184 16.3311 -6.5458 -19.9533 12.5633 -3.7933 30.0493 8.5393 -0.3250 -4.1066 17.7656 -4.2958 5.6430 10.7257 1.3293 -4.2087 13.2657 -19.3071 -13.1595 -8.7818 -19.6663 -22.9288 16.9195 24.9799 25.3116 -15.3583 19.1580 -28.4694 6.8472 -25.6839 10.4528 -41.8186 14.8898 -14.9424 -4.6001 3.7916 -2.2799 9.5058 -0.2306 -7.3520 -6.5078 4.4803 3.8347 1.2973 -4.7222 -2.7942 -10.2768 -2.1637 -8.4180 2.1394 -1.5905 -1.7441 2.0376 2.5552 2.4932 -0.7229 -0.8874 -0.3435 -0.6618 -1.8214 4.4773 -1.2533 -2.2968 2.4696 2.7327 -1.4698 0.2481 0.4490 -0.1988 0.6014 0.0632 0.2253 -0.0205 -0.2105 0.0000 -2.5400 3.3376 -0.3601 1.0465 2.1172 1.2699 0.0000 0.0000 0.0000 0.0000 0.0000 0.0000 0.0000 0.0000 0.0000 0.0000 0.0000 0.0000 0.0000 0.0000
2.0065 -1.9951 -9.4470 3.5477 18.4239 -13.8312 1.7985 -4.8759 -2.4406 -0.4639 2.0812 1.5930 -3.1595 5.0695 0.0170 1.5797 -2.1122 1.9541 4.2870 -2.4052 2.3305 -1.0724 -3.3745 1.1998 -0.3956 -0.1778 1.2669 -0.1367 -2.0468 3.6087 -0.6236 -1.6554 1.7633 0.2920 -0.4058 -1.0926 3.1157 5.5965 -1.7938 1.1586 1.9989 1.0711 0.4797 0.4971 -3.1853 1.3193 -0.7386 -0.4910 3.4466 5.9757 1.5268 1.7940 0.9432 -0.9748 -2.4895 -1.8291 -1.6249 -1.2321 0.4062 1.1304 2.6576 -8.9490 0.1469 4.1176 -5.3647 -7.3249 1.2913 -0.0411 -1.0633 -0.4671 -1.4097 -0.0647 -1.0047 0.0356 0.5900 -0.0000 1.9901 2.0919 -8.6326 1.8238 2.3366 0.3879 0.0000 0.0000 0.0000 0.0000 0.0000 0.0000 0.0000 0.0000 0.0000 0.0000 0.0000 0.0000 0.0000 0.0000
7.6611 -8.8238 -1.2020 -1.4875 7.2833 -0.2897 -1.7599 10.9945 3.4104 0.2763 -1.9839 10.5589 -6.1750 10.0505 7.7621 3.9582 -5.4386 9.8400 -8.0576 -9.9504 -3.0272 -13.2017 -16.1670 12.3002 12.8126 15.2211 -8.5090 10.4204 -15.9749 1.6324 -13.1683 4.8970 -24.3618 6.5426 -9.9999 -1.9032 4.5798 0.6352 6.5862 1.3425 -2.9725 -1.3876 3.7107 3.9433 -2.0674 -3.4112 -2.1673 -7.9279 2.0005 1.9516 -3.9726 6.0886 1.5593 -7.5494 -1.1129 -2.5125 -4.3266 -2.9309 0.0588 1.3289 3.4317 -15.2745 -4.2912 10.2258 -6.1176 -7.8487 6.3865 2.8165 1.7685 -3.2083 -2.6304 0.0699 -1.6210 0.0263 1.3006 0.0000 1.6381 2.2642 -4.6241 -0.5662 -0.4059 -0.0470 0.0000 0.0000 0.0000 0.0000 0.0000 0.0000 0.0000 0.0000 0.0000 0.0000 0.0000 0.0000 0.0000 0.0000
2.9771 6.0297 -14.8633 -0.2537 -4.6208 -7.6512 4.3077 -38.1665 -13.2784 0.0894 7.3949 -28.2217 12.8018 -18.8408 -16.5864 -6.4012 12.0837 -25.0465 28.1804 19.0175 13.1322 33.8611 39.8159 -26.1315 -35.3727 -40.1032 23.5335 -29.4576 43.8189 -8.1093 38.0935 -17.3263 63.7675 -21.3626 24.7370 6.8316 -7.5695 2.8814 -15.3109 1.5946 10.4336 7.8405 -9.6741 -7.0330 2.4531 10.1427 6.0342 15.6557 -3.1470 5.1544 1.5592 -4.9908 -1.9841 5.0223 -0.0571 0.9862 5.2863 4.5431 -0.1916 -1.0740 -3.0115 13.6567 5.1669 -11.3562 2.8795 5.1679 -6.8071 -2.5984 -0.9423 2.5340 1.6353 -0.0915 1.6837 0.0508 -1.2339 -0.0000 -1.6302 5.5226 6.5339 0.2524 -2.7323 -2.4848 0.0000 0.0000 0.0000 0.0000 0.0000 0.0000 0.0000 0.0000 0.0000 0.0000 0.0000 0.0000 0.0000 0.0000
5.9070 -5.1697 11.2683 -7.2515 -24.8548 20.4798 -2.6945 35.3927 14.5081 -0.2001 -7.1559 22.3262 -6.3431 7.7297 15.3597 4.2260 -7.1251 19.0672 -25.7647 -16.6632 -9.8116 -25.5249 -32.7137 23.2172 30.7301 33.4754 -20.7934 23.4098 -32.8934 -0.1551 -29.6720 15.1963 -55.8741 13.4600 -20.3840 0.7638 1.8514 -12.1626 17.2548 -2.0116 -12.3500 -4.9401 8.1234 6.2183 -3.3339 -6.7820 -5.3392 -13.4359 0.7331 -5.9304 0.1189 2.5458 0.1855 -4.0748 -0.6294 -0.1132 -3.9411 -2.5899 -0.0865 0.2834 1.4248 -7.8187 -2.0147 4.2976 -3.8091 -4.6414 3.4321 1.7661 1.4091 -2.4164 -1.8609 0.0839 -0.7037 0.1064 0.7070 0.0000 4.6040 2.6054 -0.7885 0.1304 -1.4046 -1.1564 0.0000 0.0000 0.0000 0.0000 0.0000 0.0000 0.0000 0.0000 0.0000 0.0000 0.0000 0.0000 0.0000 0.0000
-17.2354 4.6805 11.8761 2.6877 7.5979 -5.8844 -0.8065 3.3661 -0.7961 2.5612 0.0371 5.2500 -1.7252 5.1720 1.8857 1.0073 -1.6796 2.8220 -2.6052 -1.3601 -1.2241 -4.2552 -7.8796 3.4545 4.4202 5.6509 -1.2684 2.8515 -6.7205 3.5183 -5.0167 2.3531 -6.1445 0.6742 -3.3694 -0.0003 0.1379 -1.1299 3.1617 -1.6886 -2.3887 -1.2294 0.6811 0.3503 3.3153 -3.4657 0.1354 -2.3871 -3.9238 -1.8090 -1.0805 -1.0928 -1.9996 1.0895 1.2412 1.4701 -0.0115 -0.0065 -0.3170 -0.7733 -1.6651 4.1447 0.8932 -0.6386 4.1791 4.9117 -0.1249 0.8393 0.3308 0.1922 1.0328 0.0416 0.1743 -0.0716 -0.2586 -0.0000 -2.6001 0.1326 6.5217 -1.5329 -4.3657 -1.1684 0.0000 0.0000 0.0000 0.0000 0.0000 0.0000 0.0000 0.0000 0.0000 0.0000 0.0000 0.0000 0.0000 0.0000
-4.2383 3.2168 -4.5454 2.1667 8.1418 -8.8329 1.1023 -22.0664 -9.2369 0.4685 4.4916 -16.3321 5.6845 -9.0148 -11.0020 -3.8627 6.1093 -15.1403 16.1403 12.0057 5.7038 17.5218 24.1703 -17.0242 -21.2622 -24.5185 14.5285 -15.6600 22.3556 1.5694 18.9131 -11.8766 38.0570 -7.8250 15.1094 -2.1262 -2.2369 9.0829 -14.0673 1.5782 10.3659 2.3184 -5.6977 -4.4049 2.3227 1.1798 3.8222 9.7592 -0.2624 6.3020 -0.3429 -2.7037 1.1629 2.3938 1.1439 -0.2130 2.7563 1.4232 -0.0941 -0.3217 -0.6584 4.1501 3.1127 -4.3519 -0.0631 0.9512 -2.4336 -0.5761 -0.2585 0.2256 1.4283 -0.0374 1.0962 0.1096 -0.4404 -0.0000 -1.2222 6.1342 -4.6127 0.6137 -0.6299 0.6392 0.0000 0.0000 0.0000 0.0000 0.0000 0.0000 0.0000 0.0000 0.0000 0.0000 0.0000 0.0000 0.0000 0.0000
